<?xml version="1.0" standalone="no"?>
<!DOCTYPE svg PUBLIC "-//W3C//DTD SVG 20010904//EN"
 "http://www.w3.org/TR/2001/REC-SVG-20010904/DTD/svg10.dtd">
<svg version="1.0" xmlns="http://www.w3.org/2000/svg"
 width="300.000000pt" height="300.000000pt" viewBox="0 0 300.000000 300.000000"
 preserveAspectRatio="xMidYMid meet">
<metadata>
Created by potrace 1.10, written by Peter Selinger 2001-2011
</metadata>
<g transform="translate(0.000000,300.000000) scale(0.050000,-0.050000)"
fill="#000000" stroke="none">
<path d="M5352 2782 c-34 -37 -32 -40 26 -84 88 -65 77 -81 -33 -48 -177 54
-196 -11 -45 -160 113 -112 122 -117 154 -85 32 32 31 38 -24 95 -64 67 -59
70 53 37 161 -48 175 22 33 164 -138 138 -121 129 -164 81z"/>
<path d="M5099 2529 c-21 -26 -14 -42 48 -106 138 -141 66 -223 -75 -85 -81
80 -86 82 -118 46 -31 -34 -28 -41 62 -130 213 -209 424 -3 221 216 -91 100
-101 104 -138 59z"/>
<path d="M4844 2276 c-32 -32 -30 -62 10 -145 43 -91 32 -99 -81 -57 -83 31
-96 31 -123 5 -45 -45 191 -280 240 -239 28 24 26 32 -24 85 l-56 59 79 -32
c99 -42 121 -20 79 79 l-32 79 59 -55 c55 -53 60 -54 87 -20 39 46 -196 283
-238 241z"/>
<path d="M4540 1970 c-23 -28 -22 -47 6 -125 43 -113 38 -118 -76 -74 -169 65
-184 3 -34 -147 110 -110 122 -117 152 -88 29 30 27 37 -23 89 l-54 57 77 -32
c98 -41 127 -18 84 67 -46 88 -40 98 25 36 51 -49 59 -51 83 -22 24 27 11 47
-93 152 -108 108 -123 116 -147 87z"/>
<path d="M5130 1641 c-569 -137 -656 -952 -126 -1172 l92 -38 23 -150 c32
-216 82 -279 171 -214 35 26 36 37 10 172 -30 159 -21 180 80 181 397 4 672
649 408 957 -268 313 -598 25 -675 -591 l-24 -187 -83 61 c-234 172 -243 558
-17 731 80 61 83 61 82 -3 -2 -120 91 -113 191 14 83 104 89 149 30 208 -53
52 -65 55 -162 31z m544 -399 c158 -235 -76 -662 -364 -662 -57 0 -58 49 -6
320 70 368 245 529 370 342z"/>
<path d="M4171 1597 c-143 -112 -77 -317 103 -317 131 0 218 138 157 250 -59
111 -168 139 -260 67z m158 -88 c57 -58 23 -129 -62 -129 -38 0 -87 49 -87 87
0 21 64 73 90 73 15 0 41 -14 59 -31z"/>
<path d="M3916 1345 c-174 -186 66 -426 246 -247 63 64 73 105 31 139 -20 17
-36 8 -70 -37 -53 -71 -131 -80 -164 -19 -26 50 16 128 82 149 33 11 36 19 18
42 -36 43 -86 34 -143 -27z"/>
<path d="M3635 1066 c-33 -32 -31 -38 30 -103 63 -66 63 -68 15 -55 -234 64
-265 20 -101 -143 113 -114 121 -118 152 -84 31 34 28 40 -34 97 -75 68 -61
76 59 34 75 -27 83 -26 116 10 54 59 -181 300 -237 244z"/>
<path d="M3330 760 l-78 -80 118 -120 119 -120 85 84 c103 101 80 194 -24 96
-57 -53 -94 -40 -43 16 46 52 2 98 -49 52 -61 -55 -87 -10 -30 50 40 42 47 59
28 78 -35 35 -40 32 -126 -56z"/>
</g>
</svg>
