<?xml version="1.0" standalone="no"?>
<!DOCTYPE svg PUBLIC "-//W3C//DTD SVG 20010904//EN"
 "http://www.w3.org/TR/2001/REC-SVG-20010904/DTD/svg10.dtd">
<svg version="1.0" xmlns="http://www.w3.org/2000/svg"
 width="900.000000pt" height="900.000000pt" viewBox="0 0 900.000000 900.000000"
 preserveAspectRatio="xMidYMid meet">
<metadata>
Created by potrace 1.10, written by Peter Selinger 2001-2011
</metadata>
<g transform="translate(0.000000,900.000000) scale(0.100000,-0.100000)"
fill="#000000" stroke="none">
<path d="M7722 4575 c-11 -13 -30 -45 -42 -70 -16 -36 -26 -45 -45 -45 -18 0
-25 -5 -25 -20 0 -12 -10 -25 -25 -32 -14 -6 -29 -25 -35 -44 -11 -31 -12 -32
-42 -22 -32 11 -51 -2 -41 -28 2 -7 -3 -27 -12 -44 -9 -17 -14 -38 -11 -46 7
-18 -29 -55 -47 -48 -16 6 -67 -49 -67 -72 0 -11 -4 -12 -19 -5 -26 15 -31 5
-31 -61 0 -43 4 -58 14 -58 16 0 46 42 46 65 0 9 6 18 14 21 8 3 17 16 20 30
4 14 14 24 24 24 26 0 91 71 98 108 4 17 12 32 18 32 13 0 66 54 66 67 0 16
56 73 72 73 20 0 40 25 69 85 13 28 30 55 38 61 8 7 11 19 7 32 -9 28 -17 28
-44 -3z"/>
<path d="M7733 4383 c-4 -10 -19 -36 -35 -57 -15 -21 -28 -45 -28 -53 0 -21
-24 -10 -28 13 -8 47 -13 50 -38 19 -28 -35 -30 -51 -9 -59 30 -11 6 -114 -32
-139 -16 -10 -17 -47 -2 -47 6 0 13 9 16 20 3 10 16 26 29 35 23 15 24 15 24
-11 0 -28 -53 -109 -78 -119 -18 -7 -32 11 -32 40 0 11 -7 38 -14 60 -17 47
-46 60 -46 20 0 -14 -7 -42 -15 -61 -17 -41 -9 -67 11 -40 15 21 34 13 34 -14
0 -10 5 -22 10 -25 12 -7 14 -45 2 -45 -7 0 -25 -30 -38 -62 -13 -37 -34 -20
-34 28 0 47 -25 104 -46 104 -7 0 -26 -12 -43 -27 -35 -31 -41 -74 -16 -107 8
-11 15 -28 15 -38 0 -11 7 -18 20 -18 23 0 46 -35 29 -45 -5 -4 -15 -17 -20
-28 -17 -38 -37 -69 -47 -76 -6 -3 -14 -19 -17 -34 -6 -21 -4 -27 9 -27 9 0
20 8 23 18 4 9 22 37 40 61 18 24 33 50 33 57 0 8 4 14 9 14 5 0 12 8 15 18
10 26 29 56 49 77 10 10 26 30 35 44 17 26 45 62 72 91 8 9 33 38 54 65 45 57
112 123 182 180 27 22 54 44 60 50 6 5 34 30 62 54 29 24 52 52 52 62 0 22
-15 25 -35 7 -8 -7 -20 -17 -27 -23 -103 -79 -238 -208 -238 -226 0 -6 -8 -9
-17 -7 -26 5 -24 86 3 120 10 14 26 36 34 48 8 13 23 31 33 40 20 20 20 51 0
58 -7 2 -16 -5 -20 -15z m-349 -449 c18 -17 22 -99 7 -109 -17 -10 -48 77 -42
118 2 12 19 8 35 -9z"/>
<path d="M7557 4233 c-4 -3 -7 -15 -7 -25 0 -26 24 -17 28 10 3 21 -8 29 -21
15z"/>
<path d="M7219 4213 c-14 -16 -15 -57 -6 -202 4 -69 13 -79 47 -61 20 11 20
13 6 29 -19 20 -22 135 -6 190 14 51 -12 79 -41 44z"/>
<path d="M7137 4073 c-10 -10 -8 -83 2 -83 12 0 21 26 21 61 0 28 -9 37 -23
22z"/>
<path d="M7040 3946 c0 -41 -4 -77 -9 -80 -12 -8 -21 18 -21 64 0 39 -13 59
-25 40 -3 -5 -8 -70 -11 -144 -3 -110 -1 -136 11 -146 19 -16 24 -4 27 74 3
48 7 61 26 74 22 14 23 14 29 -6 3 -14 13 -22 27 -22 34 0 38 11 12 35 -27 25
-41 94 -30 150 5 31 4 35 -15 35 -19 0 -21 -5 -21 -74z"/>
<path d="M7100 3973 c0 -5 7 -17 15 -27 9 -11 15 -41 15 -69 0 -41 3 -48 18
-45 13 2 18 15 20 52 3 42 0 53 -22 73 -25 23 -46 30 -46 16z"/>
<path d="M7195 3928 c-4 -10 -4 -26 0 -35 6 -17 7 -17 16 0 7 11 7 23 0 35 -9
16 -10 16 -16 0z"/>
<path d="M7190 3815 c0 -14 -7 -37 -16 -50 -9 -14 -13 -32 -10 -41 6 -15 8
-15 25 0 17 16 19 16 25 -6 3 -13 6 -44 6 -70 0 -27 5 -48 11 -48 20 0 49 21
49 36 0 8 5 25 12 37 17 30 38 90 33 95 -9 9 -44 -20 -47 -40 -6 -44 -23 -17
-28 44 -5 60 -6 63 -32 66 -24 3 -28 0 -28 -23z"/>
<path d="M6707 3689 c-41 -22 -230 -196 -235 -217 -2 -7 20 -34 50 -60 65 -58
187 -180 251 -252 l48 -54 56 56 56 56 -51 38 c-50 38 -71 72 -57 93 11 19 62
12 111 -14 63 -33 81 -31 132 14 60 55 53 91 -17 91 -20 1 -52 9 -71 18 -33
17 -35 19 -32 64 5 59 -30 117 -96 158 -55 35 -92 37 -145 9z m91 -147 c20
-25 14 -76 -11 -104 -38 -41 -51 -40 -96 3 -23 22 -41 44 -41 48 0 10 62 67
80 74 21 7 53 -2 68 -21z"/>
<path d="M6338 3349 l-47 -48 66 -63 c109 -105 257 -257 266 -273 4 -8 16 -15
25 -15 21 1 102 76 102 95 0 9 -12 25 -26 38 -15 12 -93 88 -174 170 -80 81
-150 146 -156 145 -5 0 -30 -23 -56 -49z"/>
<path d="M6173 3180 c-24 -26 -43 -52 -43 -58 0 -5 32 -36 71 -68 87 -72 120
-106 116 -119 -6 -17 -43 -17 -60 -1 -9 9 -19 16 -24 16 -15 0 -148 42 -181
58 l-33 16 -55 -55 -54 -54 176 -178 c97 -97 179 -177 183 -177 13 0 91 86 91
101 0 9 -10 24 -22 32 -13 9 -45 37 -73 61 -27 25 -53 46 -57 46 -3 0 -13 13
-21 29 l-15 29 37 -5 c20 -3 59 -13 86 -23 28 -10 66 -23 85 -30 19 -7 52 -15
73 -17 34 -5 43 -1 74 28 63 62 69 50 -122 240 -96 96 -178 175 -182 176 -4 1
-27 -20 -50 -47z"/>
<path d="M5732 2737 c-67 -67 -122 -125 -122 -129 0 -3 33 -39 73 -79 39 -41
116 -120 169 -176 54 -57 100 -103 103 -103 8 0 255 248 255 256 0 3 -19 24
-42 46 l-43 41 -71 -78 c-63 -68 -75 -77 -98 -71 -27 7 -47 52 -29 65 42 27
93 79 93 94 0 20 -46 67 -66 67 -8 0 -31 -22 -51 -49 -42 -55 -69 -63 -98 -31
-25 27 -11 50 71 119 35 29 64 57 64 61 0 9 -45 58 -71 78 -13 9 -35 -9 -137
-111z"/>
<path d="M5521 2528 c-46 -43 -55 -75 -29 -106 7 -9 31 -53 53 -97 21 -44 45
-86 52 -93 33 -34 -1 -80 -35 -49 -22 20 -230 127 -245 127 -7 -1 -33 -20 -59
-45 -55 -50 -62 -80 -20 -88 41 -7 127 -41 248 -98 22 -10 47 -19 56 -19 9 0
21 -7 28 -15 7 -8 20 -15 30 -15 10 0 23 -6 29 -14 7 -8 26 -18 43 -21 27 -6
35 -2 73 37 23 24 44 51 47 59 3 8 -5 34 -17 59 -12 25 -29 61 -38 80 -8 19
-29 67 -47 105 -17 39 -41 90 -52 115 -10 25 -23 53 -29 62 -5 10 -9 27 -9 38
0 32 -31 24 -79 -22z"/>
<path d="M5060 2067 c-43 -49 -45 -54 -35 -85 6 -17 16 -37 23 -44 7 -7 12
-17 12 -24 0 -7 6 -25 14 -41 8 -15 22 -45 30 -65 9 -21 24 -55 33 -75 9 -21
21 -49 28 -63 7 -14 21 -53 31 -87 10 -35 24 -63 29 -63 19 0 105 95 105 117
0 11 -7 26 -15 33 -30 25 -17 61 39 116 l54 54 36 -15 c20 -9 36 -20 36 -25 0
-22 28 -7 78 41 28 28 52 54 52 58 0 9 -66 41 -85 41 -7 0 -26 6 -42 14 -28
14 -80 37 -143 64 -19 8 -47 21 -62 29 -14 7 -33 13 -41 13 -8 0 -20 7 -27 15
-7 8 -20 15 -30 15 -10 0 -23 7 -30 15 -21 25 -43 16 -90 -38z m168 -121 c20
-12 47 -26 60 -30 29 -10 28 -29 -6 -67 -34 -38 -67 -34 -77 11 -3 16 -13 34
-21 41 -20 16 -18 69 3 69 2 0 20 -11 41 -24z"/>
<path d="M4756 1784 l-40 -45 24 -47 c12 -26 26 -54 30 -62 13 -27 38 -22 74
17 41 44 42 50 19 95 -9 18 -22 44 -29 58 -19 37 -35 33 -78 -16z"/>
<path d="M4478 1490 l-48 -49 176 -175 c159 -159 214 -201 214 -166 0 6 50 60
112 121 l111 110 -43 44 c-23 24 -48 41 -55 39 -6 -3 -38 -36 -70 -74 -32 -39
-63 -70 -69 -70 -7 0 -23 14 -36 32 -36 49 -224 238 -235 237 -5 0 -31 -22
-57 -49z"/>
</g>
</svg>
